<mxfile host="app.diagrams.net" modified="2022-06-04T06:52:21.148Z" agent="5.0 (X11)" etag="JXTg9NiVdIbNe-L1Lazh" version="18.2.0" type="github">
  <diagram id="y0lm4xWFlt4G_mDsejn6" name="Page-1">
    <mxGraphModel dx="5532" dy="3456" grid="1" gridSize="10" guides="1" tooltips="1" connect="1" arrows="1" fold="1" page="1" pageScale="1" pageWidth="1100" pageHeight="1700" math="0" shadow="0">
      <root>
        <mxCell id="0" />
        <mxCell id="1" parent="0" />
        <mxCell id="Rr0noc_8IirMrVHqaUuR-71" value="" style="rounded=1;whiteSpace=wrap;html=1;fontSize=24;fontColor=#FFFFFF;strokeColor=#3333FF;fillColor=#66B2FF;direction=south;" parent="1" vertex="1">
          <mxGeometry x="-520" y="-1530" width="410" height="1730" as="geometry" />
        </mxCell>
        <mxCell id="6b0wmNzjnd70WcM3Avmy-1" value="" style="whiteSpace=wrap;html=1;aspect=fixed;labelBackgroundColor=none;fontSize=18;fontColor=#000000;strokeColor=#FF3333;fillColor=#99FF99;" parent="1" vertex="1">
          <mxGeometry x="-1040" y="-1620" width="435" height="435" as="geometry" />
        </mxCell>
        <mxCell id="6b0wmNzjnd70WcM3Avmy-2" style="rounded=0;orthogonalLoop=1;jettySize=auto;html=1;entryX=0;entryY=0.5;entryDx=0;entryDy=0;exitX=1;exitY=0.25;exitDx=0;exitDy=0;" parent="1" source="6b0wmNzjnd70WcM3Avmy-4" target="6b0wmNzjnd70WcM3Avmy-8" edge="1">
          <mxGeometry relative="1" as="geometry">
            <mxPoint x="130" y="-432.5" as="targetPoint" />
          </mxGeometry>
        </mxCell>
        <mxCell id="6b0wmNzjnd70WcM3Avmy-3" style="rounded=0;orthogonalLoop=1;jettySize=auto;html=1;exitX=1;exitY=0.5;exitDx=0;exitDy=0;entryX=0.25;entryY=0;entryDx=0;entryDy=0;" parent="1" source="6b0wmNzjnd70WcM3Avmy-4" target="6b0wmNzjnd70WcM3Avmy-9" edge="1">
          <mxGeometry relative="1" as="geometry" />
        </mxCell>
        <mxCell id="6b0wmNzjnd70WcM3Avmy-4" value="&lt;div&gt;&lt;font style=&quot;font-size: 24px;&quot; color=&quot;#3333FF&quot;&gt;Hola&lt;/font&gt;&lt;/div&gt;" style="rounded=1;whiteSpace=wrap;html=1;strokeColor=#3333FF;" parent="1" vertex="1">
          <mxGeometry x="-395" y="-543.12" width="150" height="52.5" as="geometry" />
        </mxCell>
        <mxCell id="6b0wmNzjnd70WcM3Avmy-5" style="rounded=0;orthogonalLoop=1;jettySize=auto;html=1;exitX=1;exitY=0.75;exitDx=0;exitDy=0;entryX=-0.001;entryY=0.205;entryDx=0;entryDy=0;entryPerimeter=0;" parent="1" source="6b0wmNzjnd70WcM3Avmy-7" target="6b0wmNzjnd70WcM3Avmy-9" edge="1">
          <mxGeometry relative="1" as="geometry" />
        </mxCell>
        <mxCell id="6b0wmNzjnd70WcM3Avmy-6" style="edgeStyle=none;rounded=0;orthogonalLoop=1;jettySize=auto;html=1;exitX=1;exitY=0.5;exitDx=0;exitDy=0;entryX=0;entryY=0.75;entryDx=0;entryDy=0;" parent="1" source="6b0wmNzjnd70WcM3Avmy-7" target="6b0wmNzjnd70WcM3Avmy-8" edge="1">
          <mxGeometry relative="1" as="geometry" />
        </mxCell>
        <mxCell id="6b0wmNzjnd70WcM3Avmy-7" value="&lt;font style=&quot;font-size: 24px;&quot; color=&quot;#3333FF&quot;&gt;buen(a|o)s (dias|tardes|noches)&lt;/font&gt;" style="rounded=1;whiteSpace=wrap;html=1;strokeColor=#3333FF;" parent="1" vertex="1">
          <mxGeometry x="-427.5" y="-443.12" width="240" height="140" as="geometry" />
        </mxCell>
        <mxCell id="Rr0noc_8IirMrVHqaUuR-65" style="edgeStyle=none;rounded=0;orthogonalLoop=1;jettySize=auto;html=1;exitX=1;exitY=0.5;exitDx=0;exitDy=0;fontSize=24;fontColor=#FFFFFF;entryX=0.012;entryY=0.634;entryDx=0;entryDy=0;entryPerimeter=0;" parent="1" source="6b0wmNzjnd70WcM3Avmy-8" target="Rr0noc_8IirMrVHqaUuR-58" edge="1">
          <mxGeometry relative="1" as="geometry">
            <mxPoint x="760" y="-900" as="targetPoint" />
          </mxGeometry>
        </mxCell>
        <mxCell id="6b0wmNzjnd70WcM3Avmy-8" value="&lt;font style=&quot;font-size: 24px;&quot; color=&quot;#FF3399&quot;&gt;Hola, yo soy Nahyo n.n&lt;/font&gt;" style="rounded=1;whiteSpace=wrap;html=1;strokeColor=#FF3399;" parent="1" vertex="1">
          <mxGeometry x="90" y="-480" width="190" height="77.5" as="geometry" />
        </mxCell>
        <mxCell id="Rr0noc_8IirMrVHqaUuR-66" style="edgeStyle=none;rounded=0;orthogonalLoop=1;jettySize=auto;html=1;exitX=1;exitY=0.5;exitDx=0;exitDy=0;entryX=0.039;entryY=0.761;entryDx=0;entryDy=0;entryPerimeter=0;fontSize=24;fontColor=#FFFFFF;" parent="1" source="6b0wmNzjnd70WcM3Avmy-9" target="Rr0noc_8IirMrVHqaUuR-58" edge="1">
          <mxGeometry relative="1" as="geometry" />
        </mxCell>
        <mxCell id="6b0wmNzjnd70WcM3Avmy-9" value="&lt;font style=&quot;font-size: 24px;&quot; color=&quot;#FF3399&quot;&gt;Hola, mi nombre es Nahyo. Soy una IA de conversación sobre anime con muchos easter eggs.&lt;/font&gt;" style="rounded=1;whiteSpace=wrap;html=1;strokeColor=#FF3399;" parent="1" vertex="1">
          <mxGeometry x="25" y="-360" width="300" height="140" as="geometry" />
        </mxCell>
        <mxCell id="6b0wmNzjnd70WcM3Avmy-10" value="&lt;font style=&quot;font-size: 18px;&quot; color=&quot;#3333FF&quot;&gt;EntradaTextual&lt;/font&gt; " style="rounded=1;whiteSpace=wrap;html=1;strokeColor=#3333FF;fillColor=#FFFFFF;" parent="1" vertex="1">
          <mxGeometry x="-912.5" y="-1570" width="135" height="50" as="geometry" />
        </mxCell>
        <mxCell id="6b0wmNzjnd70WcM3Avmy-11" value="&lt;font style=&quot;font-size: 24px;&quot;&gt;Usuario&lt;/font&gt;" style="text;html=1;strokeColor=none;fillColor=none;align=center;verticalAlign=middle;whiteSpace=wrap;rounded=0;" parent="1" vertex="1">
          <mxGeometry x="-750" y="-1550" width="60" height="30" as="geometry" />
        </mxCell>
        <mxCell id="6b0wmNzjnd70WcM3Avmy-12" value="&lt;font style=&quot;font-size: 18px;&quot; color=&quot;#FF3399&quot;&gt;RespuestaTextual&lt;/font&gt;" style="rounded=1;whiteSpace=wrap;html=1;strokeColor=#FF3399;fillColor=#FFFFFF;" parent="1" vertex="1">
          <mxGeometry x="-920" y="-1510" width="150" height="40" as="geometry" />
        </mxCell>
        <mxCell id="6b0wmNzjnd70WcM3Avmy-13" value="&lt;font style=&quot;font-size: 24px;&quot;&gt;Nahyo&lt;/font&gt;" style="text;html=1;strokeColor=none;fillColor=none;align=center;verticalAlign=middle;whiteSpace=wrap;rounded=0;" parent="1" vertex="1">
          <mxGeometry x="-750" y="-1500" width="60" height="30" as="geometry" />
        </mxCell>
        <mxCell id="6b0wmNzjnd70WcM3Avmy-14" value="&lt;font style=&quot;font-size: 18px;&quot;&gt;Entrada Generalizada&lt;/font&gt;" style="rounded=1;whiteSpace=wrap;html=1;strokeColor=#3333FF;fillColor=#FFFFFF;" parent="1" vertex="1">
          <mxGeometry x="-920" y="-1460" width="160" height="50" as="geometry" />
        </mxCell>
        <mxCell id="6b0wmNzjnd70WcM3Avmy-16" value="&lt;font style=&quot;font-size: 18px;&quot;&gt;Respuesta Generalizada&lt;/font&gt;" style="rounded=1;whiteSpace=wrap;html=1;strokeColor=#FF3399;fillColor=#FFFFFF;" parent="1" vertex="1">
          <mxGeometry x="-920" y="-1400" width="160" height="50" as="geometry" />
        </mxCell>
        <mxCell id="6b0wmNzjnd70WcM3Avmy-17" value="&lt;font style=&quot;font-size: 24px;&quot;&gt;Nahyo&lt;/font&gt;" style="text;html=1;strokeColor=none;fillColor=none;align=center;verticalAlign=middle;whiteSpace=wrap;rounded=0;" parent="1" vertex="1">
          <mxGeometry x="-740" y="-1390" width="60" height="30" as="geometry" />
        </mxCell>
        <mxCell id="6b0wmNzjnd70WcM3Avmy-18" value="&lt;font style=&quot;font-size: 36px;&quot;&gt;SIMBOLOGIA&lt;/font&gt;" style="text;html=1;strokeColor=#FF3333;fillColor=#99FF99;align=center;verticalAlign=middle;whiteSpace=wrap;rounded=0;labelBackgroundColor=none;fontSize=18;fontColor=#000000;" parent="1" vertex="1">
          <mxGeometry x="-943.75" y="-1660" width="242.5" height="55" as="geometry" />
        </mxCell>
        <mxCell id="6b0wmNzjnd70WcM3Avmy-19" style="edgeStyle=none;rounded=0;orthogonalLoop=1;jettySize=auto;html=1;exitX=1;exitY=0.5;exitDx=0;exitDy=0;entryX=0;entryY=0.5;entryDx=0;entryDy=0;fontSize=18;" parent="1" source="6b0wmNzjnd70WcM3Avmy-20" target="6b0wmNzjnd70WcM3Avmy-21" edge="1">
          <mxGeometry relative="1" as="geometry" />
        </mxCell>
        <mxCell id="6b0wmNzjnd70WcM3Avmy-20" value="&lt;font style=&quot;font-size: 24px;&quot;&gt;nombrePersonaje&lt;/font&gt;" style="rounded=1;whiteSpace=wrap;html=1;strokeColor=#3333FF;" parent="1" vertex="1">
          <mxGeometry x="-440" y="-1448.12" width="220" height="55" as="geometry" />
        </mxCell>
        <mxCell id="Rr0noc_8IirMrVHqaUuR-59" style="edgeStyle=none;rounded=0;orthogonalLoop=1;jettySize=auto;html=1;exitX=1;exitY=0.5;exitDx=0;exitDy=0;entryX=0;entryY=0;entryDx=0;entryDy=0;fontSize=24;fontColor=#FFFFFF;" parent="1" source="6b0wmNzjnd70WcM3Avmy-21" target="Rr0noc_8IirMrVHqaUuR-58" edge="1">
          <mxGeometry relative="1" as="geometry" />
        </mxCell>
        <mxCell id="6b0wmNzjnd70WcM3Avmy-21" value="&lt;div&gt;&lt;font style=&quot;font-size: 24px;&quot;&gt;Busca en sus conocimientos y manda la descripción correspondiente al personaje&lt;/font&gt;&lt;font size=&quot;3&quot;&gt;.&lt;/font&gt;&lt;/div&gt;" style="rounded=1;whiteSpace=wrap;html=1;strokeColor=#FF3399;" parent="1" vertex="1">
          <mxGeometry x="20" y="-1500" width="270" height="165" as="geometry" />
        </mxCell>
        <mxCell id="F1ygYG-BHUm1ro31WrMz-1" style="edgeStyle=none;rounded=0;orthogonalLoop=1;jettySize=auto;html=1;exitX=1;exitY=0.5;exitDx=0;exitDy=0;entryX=0;entryY=0.5;entryDx=0;entryDy=0;fontSize=18;" parent="1" source="F1ygYG-BHUm1ro31WrMz-2" target="F1ygYG-BHUm1ro31WrMz-3" edge="1">
          <mxGeometry relative="1" as="geometry" />
        </mxCell>
        <mxCell id="F1ygYG-BHUm1ro31WrMz-2" value="&lt;font style=&quot;font-size: 24px;&quot;&gt;recomiendame genero&lt;/font&gt;" style="rounded=1;whiteSpace=wrap;html=1;strokeColor=#3333FF;" parent="1" vertex="1">
          <mxGeometry x="-407.5" y="-1275.62" width="175" height="80" as="geometry" />
        </mxCell>
        <mxCell id="Rr0noc_8IirMrVHqaUuR-60" style="edgeStyle=none;rounded=0;orthogonalLoop=1;jettySize=auto;html=1;exitX=1;exitY=0.5;exitDx=0;exitDy=0;fontSize=24;fontColor=#FFFFFF;entryX=0.085;entryY=0.214;entryDx=0;entryDy=0;entryPerimeter=0;" parent="1" source="F1ygYG-BHUm1ro31WrMz-3" target="Rr0noc_8IirMrVHqaUuR-58" edge="1">
          <mxGeometry relative="1" as="geometry" />
        </mxCell>
        <mxCell id="F1ygYG-BHUm1ro31WrMz-3" value="&lt;font style=&quot;font-size: 24px;&quot;&gt;Busca de entre las opciones dependiendo del genero y devuelve una opción al azar.&lt;/font&gt;" style="rounded=1;whiteSpace=wrap;html=1;strokeColor=#FF3399;" parent="1" vertex="1">
          <mxGeometry x="30" y="-1310" width="270" height="155" as="geometry" />
        </mxCell>
        <mxCell id="F1ygYG-BHUm1ro31WrMz-36" style="edgeStyle=none;rounded=0;orthogonalLoop=1;jettySize=auto;html=1;exitX=0.5;exitY=0.5;exitDx=0;exitDy=0;exitPerimeter=0;fontSize=24;entryX=0.504;entryY=1.01;entryDx=0;entryDy=0;entryPerimeter=0;" parent="1" source="F1ygYG-BHUm1ro31WrMz-7" target="Rr0noc_8IirMrVHqaUuR-71" edge="1">
          <mxGeometry relative="1" as="geometry">
            <mxPoint x="-510" y="-665" as="targetPoint" />
          </mxGeometry>
        </mxCell>
        <mxCell id="F1ygYG-BHUm1ro31WrMz-7" value="Usuario" style="shape=umlActor;verticalLabelPosition=bottom;verticalAlign=top;html=1;outlineConnect=0;fontSize=18;" parent="1" vertex="1">
          <mxGeometry x="-730" y="-760" width="100" height="210" as="geometry" />
        </mxCell>
        <mxCell id="F1ygYG-BHUm1ro31WrMz-10" value="&lt;font style=&quot;font-size: 24px;&quot;&gt;Usuario&lt;/font&gt;" style="text;html=1;strokeColor=none;fillColor=none;align=center;verticalAlign=middle;whiteSpace=wrap;rounded=0;" parent="1" vertex="1">
          <mxGeometry x="-740" y="-1450" width="60" height="30" as="geometry" />
        </mxCell>
        <mxCell id="Rr0noc_8IirMrVHqaUuR-10" style="edgeStyle=none;rounded=0;orthogonalLoop=1;jettySize=auto;html=1;exitX=1;exitY=0.5;exitDx=0;exitDy=0;entryX=0;entryY=0.5;entryDx=0;entryDy=0;fontSize=18;" parent="1" source="Rr0noc_8IirMrVHqaUuR-11" target="Rr0noc_8IirMrVHqaUuR-12" edge="1">
          <mxGeometry relative="1" as="geometry" />
        </mxCell>
        <mxCell id="Rr0noc_8IirMrVHqaUuR-11" value="&lt;font style=&quot;font-size: 24px;&quot; color=&quot;#3333FF&quot;&gt;chiste&lt;/font&gt;" style="rounded=1;whiteSpace=wrap;html=1;strokeColor=#3333FF;" parent="1" vertex="1">
          <mxGeometry x="-375" y="-1095.62" width="110" height="43.75" as="geometry" />
        </mxCell>
        <mxCell id="Rr0noc_8IirMrVHqaUuR-61" style="edgeStyle=none;rounded=0;orthogonalLoop=1;jettySize=auto;html=1;exitX=1;exitY=0.5;exitDx=0;exitDy=0;fontSize=24;fontColor=#FFFFFF;entryX=0.025;entryY=0.288;entryDx=0;entryDy=0;entryPerimeter=0;" parent="1" source="Rr0noc_8IirMrVHqaUuR-12" target="Rr0noc_8IirMrVHqaUuR-58" edge="1">
          <mxGeometry relative="1" as="geometry" />
        </mxCell>
        <mxCell id="Rr0noc_8IirMrVHqaUuR-12" value="&lt;font style=&quot;font-size: 24px;&quot;&gt;Busca de entre las opciones disponibles y regresa un chiste&lt;br&gt;&lt;/font&gt;" style="rounded=1;whiteSpace=wrap;html=1;strokeColor=#FF3399;" parent="1" vertex="1">
          <mxGeometry x="40" y="-1140" width="270" height="140" as="geometry" />
        </mxCell>
        <mxCell id="Rr0noc_8IirMrVHqaUuR-14" style="edgeStyle=none;rounded=0;orthogonalLoop=1;jettySize=auto;html=1;exitX=1;exitY=0.5;exitDx=0;exitDy=0;entryX=0;entryY=0.5;entryDx=0;entryDy=0;fontSize=18;" parent="1" source="Rr0noc_8IirMrVHqaUuR-15" target="Rr0noc_8IirMrVHqaUuR-16" edge="1">
          <mxGeometry relative="1" as="geometry" />
        </mxCell>
        <mxCell id="Rr0noc_8IirMrVHqaUuR-22" style="rounded=0;orthogonalLoop=1;jettySize=auto;html=1;exitX=1;exitY=0.5;exitDx=0;exitDy=0;entryX=0;entryY=0.5;entryDx=0;entryDy=0;fontSize=24;fontColor=#FF3399;" parent="1" source="Rr0noc_8IirMrVHqaUuR-15" target="Rr0noc_8IirMrVHqaUuR-21" edge="1">
          <mxGeometry relative="1" as="geometry" />
        </mxCell>
        <mxCell id="Rr0noc_8IirMrVHqaUuR-26" style="edgeStyle=none;rounded=0;orthogonalLoop=1;jettySize=auto;html=1;exitX=1;exitY=0.5;exitDx=0;exitDy=0;entryX=0;entryY=0.5;entryDx=0;entryDy=0;fontSize=24;fontColor=#FF3399;" parent="1" source="Rr0noc_8IirMrVHqaUuR-15" target="Rr0noc_8IirMrVHqaUuR-24" edge="1">
          <mxGeometry relative="1" as="geometry" />
        </mxCell>
        <mxCell id="Rr0noc_8IirMrVHqaUuR-15" value="&lt;font style=&quot;font-size: 24px;&quot;&gt;Algo desconocido para Nahyo&lt;/font&gt;" style="rounded=1;whiteSpace=wrap;html=1;strokeColor=#3333FF;" parent="1" vertex="1">
          <mxGeometry x="-407.5" y="-813.12" width="175" height="106.25" as="geometry" />
        </mxCell>
        <mxCell id="Rr0noc_8IirMrVHqaUuR-63" style="edgeStyle=none;rounded=0;orthogonalLoop=1;jettySize=auto;html=1;exitX=1;exitY=0.5;exitDx=0;exitDy=0;entryX=-0.015;entryY=0.434;entryDx=0;entryDy=0;entryPerimeter=0;fontSize=24;fontColor=#FFFFFF;" parent="1" source="Rr0noc_8IirMrVHqaUuR-16" target="Rr0noc_8IirMrVHqaUuR-58" edge="1">
          <mxGeometry relative="1" as="geometry" />
        </mxCell>
        <mxCell id="Rr0noc_8IirMrVHqaUuR-16" value="&lt;font style=&quot;font-size: 24px;&quot; color=&quot;#FF3399&quot;&gt;No te entendí ¿Puedes repetirlo por favor?&lt;/font&gt;" style="rounded=1;whiteSpace=wrap;html=1;strokeColor=#FF3399;" parent="1" vertex="1">
          <mxGeometry x="80" y="-820.62" width="200" height="155" as="geometry" />
        </mxCell>
        <mxCell id="Rr0noc_8IirMrVHqaUuR-64" style="edgeStyle=none;rounded=0;orthogonalLoop=1;jettySize=auto;html=1;exitX=1;exitY=0.5;exitDx=0;exitDy=0;entryX=-0.021;entryY=0.548;entryDx=0;entryDy=0;fontSize=24;fontColor=#FFFFFF;entryPerimeter=0;" parent="1" source="Rr0noc_8IirMrVHqaUuR-21" target="Rr0noc_8IirMrVHqaUuR-58" edge="1">
          <mxGeometry relative="1" as="geometry" />
        </mxCell>
        <mxCell id="Rr0noc_8IirMrVHqaUuR-21" value="&lt;font style=&quot;font-size: 24px;&quot; color=&quot;#FF3399&quot;&gt;Creo que no tengo información al respecto; lo siento&#39;&lt;br&gt;&lt;/font&gt;" style="rounded=1;whiteSpace=wrap;html=1;strokeColor=#FF3399;" parent="1" vertex="1">
          <mxGeometry x="80" y="-650" width="200" height="155" as="geometry" />
        </mxCell>
        <mxCell id="Rr0noc_8IirMrVHqaUuR-62" style="edgeStyle=none;rounded=0;orthogonalLoop=1;jettySize=auto;html=1;exitX=1;exitY=0.5;exitDx=0;exitDy=0;entryX=0;entryY=0.342;entryDx=0;entryDy=0;entryPerimeter=0;fontSize=24;fontColor=#FFFFFF;" parent="1" source="Rr0noc_8IirMrVHqaUuR-24" target="Rr0noc_8IirMrVHqaUuR-58" edge="1">
          <mxGeometry relative="1" as="geometry" />
        </mxCell>
        <mxCell id="Rr0noc_8IirMrVHqaUuR-24" value="&lt;font style=&quot;font-size: 24px;&quot; color=&quot;#FF3399&quot;&gt;Disculpa, no comprendí lo que dices&lt;br&gt;&lt;/font&gt;" style="rounded=1;whiteSpace=wrap;html=1;strokeColor=#FF3399;" parent="1" vertex="1">
          <mxGeometry x="80" y="-990" width="200" height="155" as="geometry" />
        </mxCell>
        <mxCell id="Rr0noc_8IirMrVHqaUuR-42" style="rounded=0;orthogonalLoop=1;jettySize=auto;html=1;entryX=0;entryY=0.5;entryDx=0;entryDy=0;" parent="1" source="Rr0noc_8IirMrVHqaUuR-44" target="Rr0noc_8IirMrVHqaUuR-48" edge="1">
          <mxGeometry relative="1" as="geometry">
            <mxPoint x="132.5" y="90.61999999999989" as="targetPoint" />
          </mxGeometry>
        </mxCell>
        <mxCell id="Rr0noc_8IirMrVHqaUuR-43" style="rounded=0;orthogonalLoop=1;jettySize=auto;html=1;exitX=1;exitY=0.75;exitDx=0;exitDy=0;entryX=0;entryY=0.25;entryDx=0;entryDy=0;" parent="1" source="Rr0noc_8IirMrVHqaUuR-44" target="Rr0noc_8IirMrVHqaUuR-49" edge="1">
          <mxGeometry relative="1" as="geometry" />
        </mxCell>
        <mxCell id="Rr0noc_8IirMrVHqaUuR-44" value="&lt;font style=&quot;font-size: 24px;&quot; color=&quot;#3333FF&quot;&gt;adios&lt;/font&gt;" style="rounded=1;whiteSpace=wrap;html=1;strokeColor=#3333FF;" parent="1" vertex="1">
          <mxGeometry x="-402.5" y="10" width="150" height="52.5" as="geometry" />
        </mxCell>
        <mxCell id="Rr0noc_8IirMrVHqaUuR-45" style="rounded=0;orthogonalLoop=1;jettySize=auto;html=1;exitX=1;exitY=0.5;exitDx=0;exitDy=0;entryX=0;entryY=0.5;entryDx=0;entryDy=0;" parent="1" source="Rr0noc_8IirMrVHqaUuR-47" target="Rr0noc_8IirMrVHqaUuR-49" edge="1">
          <mxGeometry relative="1" as="geometry" />
        </mxCell>
        <mxCell id="Rr0noc_8IirMrVHqaUuR-46" style="edgeStyle=none;rounded=0;orthogonalLoop=1;jettySize=auto;html=1;exitX=1;exitY=0.5;exitDx=0;exitDy=0;entryX=0;entryY=0.75;entryDx=0;entryDy=0;" parent="1" source="Rr0noc_8IirMrVHqaUuR-47" target="Rr0noc_8IirMrVHqaUuR-48" edge="1">
          <mxGeometry relative="1" as="geometry" />
        </mxCell>
        <mxCell id="Rr0noc_8IirMrVHqaUuR-47" value="&lt;font style=&quot;font-size: 24px;&quot; color=&quot;#3333FF&quot;&gt;nos vemos&lt;br&gt;&lt;/font&gt;" style="rounded=1;whiteSpace=wrap;html=1;strokeColor=#3333FF;" parent="1" vertex="1">
          <mxGeometry x="-410" y="120" width="157.5" height="55" as="geometry" />
        </mxCell>
        <mxCell id="Rr0noc_8IirMrVHqaUuR-67" style="edgeStyle=none;rounded=0;orthogonalLoop=1;jettySize=auto;html=1;exitX=1;exitY=0.5;exitDx=0;exitDy=0;entryX=0;entryY=1;entryDx=0;entryDy=0;fontSize=24;fontColor=#FFFFFF;" parent="1" source="Rr0noc_8IirMrVHqaUuR-48" target="Rr0noc_8IirMrVHqaUuR-58" edge="1">
          <mxGeometry relative="1" as="geometry" />
        </mxCell>
        <mxCell id="Rr0noc_8IirMrVHqaUuR-48" value="&lt;font style=&quot;font-size: 24px;&quot; color=&quot;#FF3399&quot;&gt;Nos vemos pronto, adiós.&lt;br&gt;&lt;/font&gt;" style="rounded=1;whiteSpace=wrap;html=1;strokeColor=#FF3399;" parent="1" vertex="1">
          <mxGeometry x="92.5" y="13.11999999999989" width="190" height="77.5" as="geometry" />
        </mxCell>
        <mxCell id="Rr0noc_8IirMrVHqaUuR-68" style="edgeStyle=none;rounded=0;orthogonalLoop=1;jettySize=auto;html=1;exitX=1;exitY=0.5;exitDx=0;exitDy=0;fontSize=24;fontColor=#FFFFFF;" parent="1" source="Rr0noc_8IirMrVHqaUuR-49" target="Rr0noc_8IirMrVHqaUuR-58" edge="1">
          <mxGeometry relative="1" as="geometry" />
        </mxCell>
        <mxCell id="Rr0noc_8IirMrVHqaUuR-49" value="&lt;font style=&quot;font-size: 24px;&quot; color=&quot;#FF3399&quot;&gt;Hasta Luego uwu&lt;br&gt;&lt;/font&gt;" style="rounded=1;whiteSpace=wrap;html=1;strokeColor=#FF3399;" parent="1" vertex="1">
          <mxGeometry x="102.5" y="113.11999999999989" width="170" height="85" as="geometry" />
        </mxCell>
        <mxCell id="Rr0noc_8IirMrVHqaUuR-69" style="edgeStyle=orthogonalEdgeStyle;rounded=0;orthogonalLoop=1;jettySize=auto;html=1;exitX=0.5;exitY=0;exitDx=0;exitDy=0;entryX=0;entryY=0.5;entryDx=0;entryDy=0;fontSize=24;fontColor=#FFFFFF;" parent="1" source="Rr0noc_8IirMrVHqaUuR-58" target="Rr0noc_8IirMrVHqaUuR-71" edge="1">
          <mxGeometry relative="1" as="geometry">
            <Array as="points">
              <mxPoint x="905" y="-1650" />
              <mxPoint x="-315" y="-1650" />
            </Array>
          </mxGeometry>
        </mxCell>
        <mxCell id="Rr0noc_8IirMrVHqaUuR-70" style="edgeStyle=orthogonalEdgeStyle;rounded=0;orthogonalLoop=1;jettySize=auto;html=1;exitX=0.5;exitY=1;exitDx=0;exitDy=0;entryX=1;entryY=0.5;entryDx=0;entryDy=0;fontSize=24;fontColor=#FFFFFF;" parent="1" source="Rr0noc_8IirMrVHqaUuR-58" target="Rr0noc_8IirMrVHqaUuR-71" edge="1">
          <mxGeometry relative="1" as="geometry">
            <Array as="points">
              <mxPoint x="905" y="350" />
              <mxPoint x="-315" y="350" />
            </Array>
          </mxGeometry>
        </mxCell>
        <mxCell id="Rr0noc_8IirMrVHqaUuR-58" value="&lt;font color=&quot;#FFFFFF&quot;&gt;Ingresa un nuevo comando&lt;/font&gt;" style="ellipse;whiteSpace=wrap;html=1;aspect=fixed;fontSize=24;fontColor=#3333FF;strokeColor=#FFFFFF;fillColor=#000000;" parent="1" vertex="1">
          <mxGeometry x="780" y="-915.62" width="250" height="250" as="geometry" />
        </mxCell>
        <mxCell id="Rr0noc_8IirMrVHqaUuR-74" value="&lt;font style=&quot;font-size: 48px;&quot; color=&quot;#000000&quot;&gt;!n&lt;/font&gt;" style="text;html=1;strokeColor=none;fillColor=none;align=center;verticalAlign=middle;whiteSpace=wrap;rounded=0;fontSize=24;fontColor=#FFFFFF;rotation=0;" parent="1" vertex="1">
          <mxGeometry x="-680" y="-743.75" width="140" height="70" as="geometry" />
        </mxCell>
        <mxCell id="Rr0noc_8IirMrVHqaUuR-78" value="&lt;font style=&quot;font-size: 18px;&quot;&gt;Modo nuevo&lt;/font&gt;" style="rounded=1;whiteSpace=wrap;html=1;fontSize=24;" parent="1" vertex="1">
          <mxGeometry x="-900" y="-1340" width="120" height="40" as="geometry" />
        </mxCell>
        <mxCell id="Rr0noc_8IirMrVHqaUuR-79" value="&lt;font style=&quot;font-size: 18px;&quot; color=&quot;#FFFFFF&quot;&gt;Punto de retorno&lt;br&gt;&lt;/font&gt;" style="ellipse;whiteSpace=wrap;html=1;aspect=fixed;fontSize=24;fontColor=#3333FF;strokeColor=#FFFFFF;fillColor=#000000;" parent="1" vertex="1">
          <mxGeometry x="-895" y="-1290" width="100" height="100" as="geometry" />
        </mxCell>
        <mxCell id="vdoJmQ3De839JQpRtA3F-1" value="&lt;font style=&quot;font-size: 24px;&quot; color=&quot;#3333FF&quot;&gt;referencia&lt;/font&gt;" style="rounded=1;whiteSpace=wrap;html=1;strokeColor=#3333FF;" parent="1" vertex="1">
          <mxGeometry x="-410" y="-130" width="160" height="43.75" as="geometry" />
        </mxCell>
        <mxCell id="vdoJmQ3De839JQpRtA3F-2" style="edgeStyle=none;rounded=0;orthogonalLoop=1;jettySize=auto;html=1;exitX=1;exitY=0.5;exitDx=0;exitDy=0;entryX=0;entryY=0.5;entryDx=0;entryDy=0;" parent="1" source="vdoJmQ3De839JQpRtA3F-1" target="vdoJmQ3De839JQpRtA3F-3" edge="1">
          <mxGeometry relative="1" as="geometry">
            <mxPoint x="-245" y="-110" as="sourcePoint" />
            <mxPoint x="85" y="-120" as="targetPoint" />
          </mxGeometry>
        </mxCell>
        <mxCell id="vdoJmQ3De839JQpRtA3F-3" value="&lt;span style=&quot;font-size: 24px;&quot;&gt;Busca entre sus conocimientos y entrega una frase de uno de los personajes que conoce&lt;/span&gt;&lt;font style=&quot;font-size: 24px;&quot; color=&quot;#FF3399&quot;&gt;&lt;br&gt;&lt;/font&gt;" style="rounded=1;whiteSpace=wrap;html=1;strokeColor=#FF3399;" parent="1" vertex="1">
          <mxGeometry x="42.5" y="-190.0000000000001" width="275" height="162.18" as="geometry" />
        </mxCell>
        <mxCell id="vdoJmQ3De839JQpRtA3F-4" style="edgeStyle=none;rounded=0;orthogonalLoop=1;jettySize=auto;html=1;exitX=1;exitY=0.5;exitDx=0;exitDy=0;fontSize=24;fontColor=#FFFFFF;entryX=0.083;entryY=0.809;entryDx=0;entryDy=0;entryPerimeter=0;" parent="1" source="vdoJmQ3De839JQpRtA3F-3" target="Rr0noc_8IirMrVHqaUuR-58" edge="1">
          <mxGeometry relative="1" as="geometry">
            <mxPoint x="360" y="84.73000000000002" as="sourcePoint" />
            <mxPoint x="896.6116523516821" y="-560.001652351682" as="targetPoint" />
          </mxGeometry>
        </mxCell>
      </root>
    </mxGraphModel>
  </diagram>
</mxfile>
